<svg fill="none" height="200" viewBox="0 0 200 200" width="200" xmlns="http://www.w3.org/2000/svg"><g clip-rule="evenodd" fill="#fff" fill-rule="evenodd"><path d="m191.079 74.5457c-.097.3598-.118.7222-.075 1.0707l-78.928 19.1001c-4.084.9883-7.773-2.6921-6.782-6.7686l18.749-77.168c1.456.3193 2.919-.5583 3.307-2.00967.401-1.4936-.489-3.02982-1.986-3.43095s-3.035.48463-3.435 1.97823c-.389 1.45134.439 2.94289 1.86 3.39429l-22.348 76.2038c-1.181 4.0254-6.2151 5.3686-9.2583 2.4704l-58.8033-56.0044c.2126-.2799.375-.6051.4714-.965.4002-1.4936-.4891-3.0298-1.9861-3.4309-1.4971-.4012-3.0353.4846-3.4355 1.9782-.4003 1.4936.489 3.0298 1.9861 3.431 1.0721.2872 2.165-.0852 2.8466-.8686l56.1028 58.6729c2.9039 3.0371 1.5576 8.0608-2.4757 9.2398l-77.92271 22.76c-.1986-1.019-.95885-1.888-2.031-2.176-1.49704-.401-3.0353.485-3.43551 1.979-.40021 1.493.48909 3.029 1.98613 3.431 1.49704.401 3.03531-.485 3.43552-1.979.09642-.36.11845-.722.07427-1.071l78.9271-19.099c4.0848-.989 7.773 2.692 6.7828 6.769l-18.7483 77.167c-1.4558-.319-2.9188.558-3.3077 2.01-.4002 1.493.4891 3.03 1.9861 3.431 1.4971.401 3.0354-.485 3.4356-1.978.3888-1.452-.4394-2.943-1.8598-3.395l22.3466-76.203c1.1808-4.026 6.2149-5.369 9.2589-2.47l58.803 56.004c-.212.28-.374.605-.471.964-.4 1.494.489 3.03 1.986 3.431s3.036-.484 3.436-1.978c.4-1.493-.489-3.03-1.986-3.431-1.072-.287-2.166.086-2.847.869l-56.103-58.672c-2.904-3.038-1.558-8.062 2.476-9.2401l77.923-22.7614c.198 1.0191.959 1.8889 2.031 2.1761 1.497.4012 3.035-.4846 3.435-1.9782s-.489-3.0298-1.986-3.4309c-1.497-.4012-3.035.4846-3.435 1.9782z"/><path d="m191.07 75.7908c.029.1485.07.2938.122.4346.009.0236.018.0471.027.0704.168.4209.437.7985.786 1.096.308.2634.679.464 1.097.576 1.498.4013 3.036-.4849 3.437-1.9791.4-1.4942-.489-3.031-1.987-3.4323-1.151-.3083-2.326.1433-2.99 1.0467-.2.2725-.354.5861-.447.9323-.096.36-.118.7225-.074 1.0712l-78.96 19.1077c-4.086.9887-7.776-2.6932-6.785-6.7713l18.756-77.1989c.643.141 1.287.0488 1.84-.223.699-.3441 1.252-.97617 1.469-1.78741.401-1.4942-.489-3.03103-1.987-3.43233-1.497-.40129-3.036.48483-3.436 1.97902-.218.81125-.055 1.63505.379 2.28288.342.51164.854.91354 1.481 1.11274l-22.356 76.2344c-1.182 4.027-6.218 5.3707-9.2624 2.4713l-58.8267-56.0268c.2127-.28.3751-.6053.4716-.9653.0927-.3459.1162-.6941.0791-1.03-.1233-1.1149-.9151-2.094-2.0661-2.4024-1.4976-.4012-3.0365.4849-3.4368 1.9791-.4004 1.4942.4892 3.031 1.9869 3.4323.4179.112.839.1238 1.2376.0501.4513-.0834.8739-.2764 1.2307-.5576.0195-.0154.0389-.0311.058-.047.1149-.0956.2225-.2007.3214-.3144l56.1252 58.6963c2.905 3.0383 1.5582 8.065-2.4767 9.243l-77.9538 22.77c-.02883-.148-.06947-.293-.12118-.433-.00862-.024-.01754-.047-.02676-.07-.16838-.422-.43787-.8-.78702-1.098-.30839-.264-.67894-.464-1.09685-.576-1.49764-.401-3.03652.485-3.43689 1.979s.48929 3.031 1.98692 3.433c1.15094.308 2.32624-.144 2.99043-1.048.20008-.272.35378-.586.44646-.931.09647-.36.1185-.723.07431-1.072l78.95858-19.107c4.0864-.989 7.7761 2.693 6.7856 6.771l-18.7558 77.199c-.6427-.141-1.2868-.049-1.8393.223-.6996.344-1.2524.976-1.4698 1.787-.4004 1.494.4893 3.031 1.9869 3.433 1.4977.401 3.0365-.485 3.4369-1.979.2174-.812.0546-1.635-.3792-2.283-.3426-.512-.8543-.914-1.4813-1.113l22.3556-76.234c1.1812-4.027 6.2174-5.371 9.2624-2.471l58.827 56.027c-.212.28-.375.604-.471.964-.093.347-.117.695-.079 1.031.123 1.115.915 2.093 2.066 2.402 1.497.401 3.036-.485 3.436-1.979.401-1.495-.489-3.031-1.986-3.433-.419-.112-.84-.123-1.239-.049-.45.083-.872.275-1.228.556-.02.015-.04.031-.059.047-.115.096-.223.202-.322.316l-56.126-58.696c-2.905-3.039-1.558-8.0651 2.477-9.2437zm-24.034 88.1552-54.976-57.494c-1.888-1.975-1.013-5.242 1.61-6.008l76.358-22.3047c.617.8133 1.501 1.4369 2.566 1.7224 2.546.6823 5.162-.8241 5.843-3.3643s-.832-5.1527-3.378-5.835c-2.546-.6822-5.162.8242-5.842 3.3644-.001.001-.001.002-.001.003l-77.6 18.7786c-2.656.6427-5.054-1.7507-4.411-4.4013l18.401-75.7317c1.715-.3493 3.171-1.6311 3.654-3.43305.68-2.54021-.832-5.15274-3.378-5.83496-2.546-.68221-5.162.82413-5.843 3.36434-.483 1.80194.138 3.64007 1.448 4.80017l-21.9312 74.7856c-.7678 2.6172-4.0414 3.4909-6.0205 1.6062l-57.8135-55.0618c.0003-.0012.0007-.0024.001-.0037.6806-2.5402-.8317-5.1527-3.3778-5.8349-2.546-.6822-5.162.8241-5.8427 3.3643-.6806 2.5402.8317 5.1528 3.3778 5.835 1.0657.2855 2.1423.1874 3.0837-.2079l54.9758 57.4943c1.8882 1.9749 1.0128 5.242-1.6099 6.0081l-76.35734 22.3029c-.6177-.813-1.50095-1.436-2.56668-1.722-2.54606-.682-5.16207.824-5.84271 3.365-.68065 2.54.83171 5.152 3.37777 5.835 2.54606.682 5.16206-.825 5.84266-3.365.0004-.001.0007-.002.001-.003l77.5987-18.778c2.6559-.643 5.0546 1.75 4.4107 4.401l-18.3993 75.732c-1.7152.349-3.1713 1.631-3.6541 3.433-.6807 2.54.8317 5.152 3.3777 5.835 2.5461.682 5.1621-.825 5.8427-3.365.4829-1.802-.1373-3.64-1.448-4.8l21.9302-74.785c.768-2.618 4.042-3.491 6.021-1.606l57.814 55.062c0 .001 0 .002-.001.003-.68 2.54.832 5.152 3.378 5.835 2.546.682 5.162-.824 5.843-3.365.68-2.54-.832-5.152-3.378-5.835-1.066-.285-2.143-.187-3.084.209z"/></g></svg>